<svg xmlns="http://www.w3.org/2000/svg" viewBox="0 0 512 512" fill="#c84421"  width="20px" height="20px"><polygon points="353.6 176.5 313.5 175.1 304.8 412.3 344.9 413.8 "/><rect x="235.9" y="175.8" width="40.1" height="237.3"/><polygon
    points="207.2 412.3 198.5 175 158.4 176.5 167.1 413.8 "/><path d="M17.4 76.9v40.1h41.8L92.3 493.7C93.2 504.1 101.9 512 112.3 512h286.7c10.4 0 19.1-7.9 20-18.3l33.2-376.7h42.5V76.9H17.4zM380.7 471.9H130.7L99.4 117h312.5L380.7 471.9z"/><path d="M321.5 0H190.5c-18.4 0-33.4 15-33.4 33.4v63.5h40.1V40.1h117.6v56.8h40.1V33.4C354.9 15 339.9 0 321.5 0z"/></svg>
